<svg xmlns="http://www.w3.org/2000/svg" viewBox="0 0 36 36" width="36" height="36" role="img" aria-label="Cafe Flow">
  <rect x="1" y="1" width="34" height="34" rx="9" fill="#17324d"/>
  <path d="M10 13h13v8.5a5 5 0 0 1-5 5h-3a5 5 0 0 1-5-5V13z" fill="#f8fafc"/>
  <path d="M23 15h2.4a3.1 3.1 0 0 1 0 6.2H23v-2h2.4a1.1 1.1 0 0 0 0-2.2H23v-2z" fill="#f8fafc"/>
  <path d="M13.5 7.5c1 1.2-.8 2 .2 3.2M17.5 7.5c1 1.2-.8 2 .2 3.2" stroke="#f8fafc" stroke-width="1.4" stroke-linecap="round" fill="none"/>
</svg>
